# Blender v2.79 (sub 0) OBJ File: 'wall.blend'
# www.blender.org
mtllib wall.mtl
o wall.002
v -0.500000 0.062500 -0.306250
v -0.500000 0.062500 -0.368750
v -0.500000 0.937500 -0.368750
v -0.500000 1.000000 -0.306250
v -0.500000 0.937500 -0.306250
v -0.125000 0.125000 -0.306250
v -0.125000 0.125000 -0.431250
v -0.125000 0.875000 -0.368750
v -0.062500 0.875000 -0.306250
v -0.062500 0.125000 -0.368750
v -0.062500 0.875000 -0.368750
v 0.062500 0.875000 -0.306250
v 0.062500 0.875000 -0.368750
v 0.062500 0.875000 -0.493750
v 0.125000 0.062500 -0.368750
v 0.125000 0.125000 -0.368750
v 0.125000 0.062500 -0.493750
v 0.125000 0.125000 -0.493750
v 0.125000 0.875000 -0.306250
v 0.125000 0.937500 -0.306250
v 0.125000 0.875000 -0.431250
v 0.125000 0.875000 -0.493750
v 0.500000 0.062500 -0.306250
v 0.500000 0.062500 -0.368750
v -0.125000 0.937500 -0.306250
v 0.062500 0.125000 -0.306250
v 0.125000 0.062500 -0.306250
v 0.125000 0.125000 -0.306250
v -0.125000 0.937500 -0.368750
v 0.062500 0.125000 -0.368750
v 0.125000 0.937500 -0.368750
v 0.500000 0.937500 -0.368750
v -0.500000 0.062500 -0.431250
v -0.500000 0.937500 -0.431250
v -0.125000 0.062500 -0.431250
v -0.125000 0.875000 -0.431250
v -0.125000 0.937500 -0.431250
v 0.062500 0.875000 -0.431250
v 0.125000 0.125000 -0.431250
v 0.500000 0.062500 -0.431250
v 0.125000 0.937500 -0.431250
v 0.125000 0.062500 -0.431250
v -0.125000 0.062500 -0.493750
v -0.500000 0.937500 -0.493750
v -0.500000 1.000000 -0.493750
v -0.125000 0.937500 -0.493750
v -0.062500 0.875000 -0.493750
v 0.125000 0.937500 -0.493750
v 0.500000 -0.000000 -0.493750
v -0.500000 -0.000000 -0.493750
v 0.500000 -0.000000 -0.306250
v -0.500000 -0.000000 -0.306250
v -0.125000 0.875000 -0.306250
v 0.125000 0.875000 -0.368750
v -0.125000 0.875000 -0.493750
v -0.062500 0.875000 -0.431250
v 0.500000 0.937500 -0.306250
v 0.500000 0.937500 -0.431250
v 0.500000 0.937500 -0.493750
v -0.125000 0.062500 -0.306250
v -0.125000 0.062500 -0.368750
v -0.500000 0.062500 -0.493750
v 0.500000 0.062500 -0.493750
v -0.062500 0.125000 -0.306250
v -0.125000 0.125000 -0.368750
v -0.062500 0.125000 -0.431250
v -0.125000 0.125000 -0.493750
v -0.062500 0.125000 -0.493750
v 0.062500 0.125000 -0.431250
v 0.062500 0.125000 -0.493750
v 0.500000 1.000000 -0.306250
v 0.500000 1.000000 -0.493750
vt 0.958984 0.500000
vt 0.958984 0.500000
vt 0.958984 0.500000
vt 0.958984 0.500000
vt 0.958984 0.500000
vt 0.958984 0.500000
vt 0.958984 0.500000
vt 0.958984 0.500000
vt 0.958984 0.500000
vt 0.958984 0.500000
vt 0.958984 0.500000
vt 0.958984 0.500000
vt 0.958984 0.500000
vt 0.958984 0.500000
vt 0.958984 0.500000
vt 0.958984 0.500000
vt 0.958984 0.500000
vt 0.958984 0.500000
vt 0.958984 0.500000
vt 0.958984 0.500000
vt 0.958984 0.500000
vt 0.958984 0.500000
vt 0.958984 0.500000
vt 0.958984 0.500000
vt 0.958984 0.500000
vt 0.958984 0.500000
vt 0.958984 0.500000
vt 0.958984 0.500000
vt 0.958984 0.500000
vt 0.958984 0.500000
vt 0.958984 0.500000
vt 0.958984 0.500000
vt 0.958984 0.500000
vt 0.958984 0.500000
vt 0.958984 0.500000
vt 0.958984 0.500000
vt 0.958984 0.500000
vt 0.958984 0.500000
vt 0.958984 0.500000
vt 0.958984 0.500000
vt 0.958984 0.500000
vt 0.958984 0.500000
vt 0.958984 0.500000
vt 0.958984 0.500000
vt 0.958984 0.500000
vt 0.958984 0.500000
vt 0.958984 0.500000
vt 0.958984 0.500000
vt 0.958984 0.500000
vt 0.958984 0.500000
vt 0.958984 0.500000
vt 0.958984 0.500000
vt 0.958984 0.500000
vt 0.958984 0.500000
vt 0.958984 0.500000
vt 0.958984 0.500000
vt 0.958984 0.500000
vt 0.958984 0.500000
vt 0.958984 0.500000
vt 0.958984 0.500000
vt 0.958984 0.500000
vt 0.958984 0.500000
vt 0.958984 0.500000
vt 0.958984 0.500000
vt 0.958984 0.500000
vt 0.958984 0.500000
vt 0.958984 0.500000
vt 0.958984 0.500000
vt 0.958984 0.500000
vt 0.958984 0.500000
vt 0.958984 0.500000
vt 0.958984 0.500000
vn -1.0000 0.0000 0.0000
vn 1.0000 0.0000 0.0000
vn 0.0000 0.0000 1.0000
vn 0.0000 0.0000 -1.0000
vn 0.0000 -1.0000 -0.0000
vn 0.0000 1.0000 0.0000
usemtl palette.003
s off
f 1/1/1 50/2/1 52/3/1
f 2/4/1 50/2/1 1/1/1
f 33/5/1 50/2/1 2/4/1
f 62/6/1 50/2/1 33/5/1
f 3/7/1 33/5/1 2/4/1
f 34/8/1 33/5/1 3/7/1
f 4/9/1 3/7/1 5/10/1
f 4/9/1 44/11/1 34/8/1
f 4/9/1 34/8/1 3/7/1
f 45/12/1 44/11/1 4/9/1
f 6/13/1 61/14/1 60/15/1
f 65/16/1 61/14/1 6/13/1
f 7/17/1 43/18/1 35/19/1
f 67/20/1 43/18/1 7/17/1
f 25/21/1 8/22/1 53/23/1
f 29/24/1 8/22/1 25/21/1
f 37/25/1 55/26/1 36/27/1
f 46/28/1 55/26/1 37/25/1
f 9/29/1 10/30/1 64/31/1
f 11/32/1 10/30/1 9/29/1
f 56/33/1 68/34/1 66/35/1
f 47/36/1 68/34/1 56/33/1
f 26/37/2 30/38/2 12/39/2
f 12/39/2 30/38/2 13/40/2
f 69/41/2 70/42/2 38/43/2
f 38/43/2 70/42/2 14/44/2
f 27/45/2 15/46/2 28/47/2
f 28/47/2 15/46/2 16/48/2
f 42/49/2 17/50/2 39/51/2
f 39/51/2 17/50/2 18/52/2
f 19/53/2 54/54/2 20/55/2
f 20/55/2 54/54/2 31/56/2
f 21/57/2 22/58/2 41/59/2
f 41/59/2 22/58/2 48/60/2
f 51/61/2 49/62/2 23/63/2
f 23/63/2 49/62/2 24/64/2
f 24/64/2 49/62/2 40/65/2
f 40/65/2 49/62/2 63/66/2
f 24/64/2 40/65/2 32/67/2
f 32/67/2 40/65/2 58/68/2
f 57/69/2 32/67/2 71/70/2
f 58/68/2 59/71/2 71/70/2
f 32/67/2 58/68/2 71/70/2
f 71/70/2 59/71/2 72/72/2
f 60/15/3 1/1/3 52/3/3
f 25/21/3 4/9/3 5/10/3
f 64/31/3 6/13/3 60/15/3
f 9/29/3 25/21/3 53/23/3
f 26/37/3 64/31/3 60/15/3
f 26/37/3 9/29/3 64/31/3
f 12/39/3 25/21/3 9/29/3
f 12/39/3 9/29/3 26/37/3
f 27/45/3 26/37/3 60/15/3
f 27/45/3 60/15/3 52/3/3
f 28/47/3 26/37/3 27/45/3
f 19/53/3 25/21/3 12/39/3
f 20/55/3 4/9/3 25/21/3
f 20/55/3 25/21/3 19/53/3
f 51/61/3 27/45/3 52/3/3
f 23/63/3 27/45/3 51/61/3
f 57/69/3 4/9/3 20/55/3
f 71/70/3 4/9/3 57/69/3
f 61/14/3 3/7/3 2/4/3
f 65/16/3 3/7/3 61/14/3
f 8/22/3 3/7/3 65/16/3
f 29/24/3 3/7/3 8/22/3
f 10/30/3 8/22/3 65/16/3
f 11/32/3 8/22/3 10/30/3
f 16/48/3 13/40/3 30/38/3
f 54/54/3 13/40/3 16/48/3
f 24/64/3 54/54/3 16/48/3
f 24/64/3 31/56/3 54/54/3
f 24/64/3 16/48/3 15/46/3
f 32/67/3 31/56/3 24/64/3
f 33/5/4 34/8/4 35/19/4
f 35/19/4 34/8/4 7/17/4
f 7/17/4 34/8/4 36/27/4
f 36/27/4 34/8/4 37/25/4
f 7/17/4 36/27/4 66/35/4
f 66/35/4 36/27/4 56/33/4
f 69/41/4 38/43/4 39/51/4
f 39/51/4 38/43/4 21/57/4
f 39/51/4 21/57/4 40/65/4
f 21/57/4 41/59/4 40/65/4
f 42/49/4 39/51/4 40/65/4
f 40/65/4 41/59/4 58/68/4
f 50/2/4 62/6/4 43/18/4
f 44/11/4 45/12/4 46/28/4
f 43/18/4 67/20/4 68/34/4
f 55/26/4 46/28/4 47/36/4
f 43/18/4 68/34/4 70/42/4
f 68/34/4 47/36/4 70/42/4
f 47/36/4 46/28/4 14/44/4
f 70/42/4 47/36/4 14/44/4
f 43/18/4 70/42/4 17/50/4
f 50/2/4 43/18/4 17/50/4
f 17/50/4 70/42/4 18/52/4
f 14/44/4 46/28/4 22/58/4
f 46/28/4 45/12/4 48/60/4
f 22/58/4 46/28/4 48/60/4
f 50/2/4 17/50/4 49/62/4
f 49/62/4 17/50/4 63/66/4
f 48/60/4 45/12/4 59/71/4
f 59/71/4 45/12/4 72/72/4
f 50/2/5 51/61/5 52/3/5
f 49/62/5 51/61/5 50/2/5
f 8/22/5 9/29/5 53/23/5
f 11/32/5 9/29/5 8/22/5
f 13/40/5 19/53/5 12/39/5
f 54/54/5 19/53/5 13/40/5
f 55/26/5 56/33/5 36/27/5
f 47/36/5 56/33/5 55/26/5
f 14/44/5 21/57/5 38/43/5
f 22/58/5 21/57/5 14/44/5
f 3/7/5 25/21/5 5/10/5
f 29/24/5 25/21/5 3/7/5
f 31/56/5 57/69/5 20/55/5
f 32/67/5 57/69/5 31/56/5
f 44/11/5 37/25/5 34/8/5
f 46/28/5 37/25/5 44/11/5
f 48/60/5 58/68/5 41/59/5
f 59/71/5 58/68/5 48/60/5
f 1/1/6 60/15/6 2/4/6
f 2/4/6 60/15/6 61/14/6
f 27/45/6 23/63/6 15/46/6
f 15/46/6 23/63/6 24/64/6
f 33/5/6 35/19/6 62/6/6
f 62/6/6 35/19/6 43/18/6
f 42/49/6 40/65/6 17/50/6
f 17/50/6 40/65/6 63/66/6
f 6/13/6 64/31/6 65/16/6
f 65/16/6 64/31/6 10/30/6
f 26/37/6 28/47/6 30/38/6
f 30/38/6 28/47/6 16/48/6
f 7/17/6 66/35/6 67/20/6
f 67/20/6 66/35/6 68/34/6
f 69/41/6 39/51/6 70/42/6
f 70/42/6 39/51/6 18/52/6
f 4/9/6 71/70/6 45/12/6
f 45/12/6 71/70/6 72/72/6
